<?xml version="1.0" ?><!DOCTYPE svg  PUBLIC '-//W3C//DTD SVG 1.1//EN'  'http://www.w3.org/Graphics/SVG/1.1/DTD/svg11.dtd'><svg enable-background="new 0 0 512 512" height="512px" id="Layer_1" version="1.1" viewBox="0 0 512 512" width="512px" xml:space="preserve" xmlns="http://www.w3.org/2000/svg" xmlns:xlink="http://www.w3.org/1999/xlink"><g><g><path d="M512,256.001C512,397.39,397.388,512,256,512c-11.085,0-22.043-0.715-32.742-2.069     C97.357,493.851,0,386.28,0,256.001C0,114.61,114.638,0,256,0c131.43,0,239.718,99.045,254.311,226.561     C511.438,236.211,512,246.041,512,256.001z" fill="#227E8C"/><g><path d="M512,256.001C512,397.39,397.388,512,256,512c-11.085,0-22.043-0.715-32.742-2.069L113.178,400.64      V111.36h284.16l112.973,115.2C511.438,236.211,512,246.041,512,256.001z" opacity="0.15"/><g><rect fill="#FFFEA9" height="276.785" width="271.37" x="120.328" y="117.616"/><g><g><path d="M364.058,364.8v30.72h-215.04V364.8c0.025-4.505,0.64-8.729,1.563-12.8         c0.768-3.505,0.997-6.91,3.558-10.24v-0.025c2.56-5.71,5.71-10.854,9.805-15.335c3.635-4.02,7.758-7.475,12.415-10.239         c8.245-4.915,17.793-7.681,28.11-7.681h103.064c10.343,0,20.07,2.766,28.442,7.681c4.735,2.765,9.088,6.22,12.801,10.239         c4.147,4.48,7.602,9.625,10.162,15.335v0.025c2.561,3.33,2.638,6.735,3.532,10.24         C363.52,356.07,364.032,360.295,364.058,364.8z" fill="#D6D6D6"/><path d="M348.775,326.399H163.737c3.636-4.02,7.86-7.475,12.518-10.239h159.72         C340.71,318.925,345.063,322.38,348.775,326.399z" fill="#4D4D4D"/><path d="M362.47,352H150.58c0.768-3.505,0.997-6.91,3.558-10.24h204.8         C361.498,345.09,361.575,348.495,362.47,352z" fill="#4D4D4D"/><rect fill="#4D4D4D" height="10.24" width="215.04" x="149.018" y="364.8"/><g><rect fill="#FFFFFF" height="43.03" width="68.08" x="265.748" y="338.06"/><path d="M334.713,379.99c0,1.215-0.79,2.199-1.768,2.199H266.63c-0.978,0-1.768-0.984-1.768-2.199v-40.83          c0-1.215,0.79-2.2,1.768-2.2h66.315c0.978,0,1.768,0.985,1.768,2.2V379.99z M266.633,379.99h66.31v-40.83h-66.31V379.99z" fill="#8C1B06"/></g><g><path d="M291.755,346.68c-1.325-1.335-2.957-2.015-4.854-2.015c-1.883,0-3.516,0.675-4.851,2          c-1.337,1.33-2.015,2.965-2.015,4.865v14.925c0,1.88,0.675,3.51,2.002,4.84c1.33,1.33,2.966,2.005,4.863,2.005          c1.869,0,3.494-0.67,4.83-1.995c1.337-1.32,2.015-2.95,2.015-4.85V351.53C293.745,349.649,293.075,348.015,291.755,346.68z           M284.735,351.445c0-0.575,0.194-1.051,0.592-1.455c0.4-0.405,0.873-0.605,1.442-0.605c0.573,0,1.048,0.2,1.453,0.605          c0.407,0.404,0.604,0.88,0.604,1.455v14.944c0,0.57-0.197,1.045-0.604,1.455c-0.405,0.405-0.88,0.601-1.453,0.601          c-0.569,0-1.042-0.195-1.442-0.601c-0.397-0.405-0.592-0.885-0.592-1.455V351.445z"/><path d="M308.38,346.68c-1.325-1.335-2.957-2.015-4.854-2.015c-1.883,0-3.516,0.675-4.851,2          c-1.337,1.33-2.015,2.965-2.015,4.865v14.925c0,1.88,0.675,3.51,2.002,4.84c1.33,1.33,2.965,2.005,4.863,2.005          c1.869,0,3.494-0.67,4.83-1.995c1.337-1.32,2.015-2.95,2.015-4.85V351.53C310.37,349.649,309.7,348.015,308.38,346.68z           M301.36,351.445c0-0.575,0.194-1.051,0.593-1.455c0.399-0.405,0.872-0.605,1.441-0.605c0.573,0,1.048,0.2,1.453,0.605          c0.407,0.404,0.605,0.88,0.605,1.455v14.944c0,0.57-0.198,1.045-0.605,1.455c-0.405,0.405-0.88,0.601-1.453,0.601          c-0.569,0-1.042-0.195-1.441-0.601c-0.398-0.405-0.593-0.885-0.593-1.455V351.445z"/><path d="M317.936,345.015l-0.083,0.19c-0.367,0.845-0.979,1.575-1.825,2.17c-0.842,0.6-1.742,0.955-2.678,1.064          l-0.282,0.035v3.485h3.513v21.055h4.765v-28H317.936z"/></g></g><g><path d="M287.308,281.559v30.031c-2.67,2.72-5.79,4.99-9.245,6.78c-7.1,3.734-15.515,5.51-23.875,5.33         c-11.689-0.235-23.285-4.271-30.939-12.11v-30.031H287.308z" fill="#E8A680"/><path d="M287.308,281.559v30.031l-9.245,6.78c-7.1,3.734-15.515,5.51-23.875,5.33l5.125-14.565         l-36.064-27.576H287.308z" fill="#D4875B"/></g><g><path d="M285.248,152.631c-0.36-0.205-0.711-0.373-1.075-0.518c-0.04-0.018-0.085-0.03-0.136-0.048         c-0.34-0.13-0.685-0.242-1.029-0.325l0,0c2.755,5.075,4.29,10.64,4.29,16.48c0,23.79-25.29,43.075-56.49,43.075         c-16.09,0-30.601-5.135-40.89-13.363c0,0,0,0,0,0.002c-0.365,1.115-0.711,2.243-1.03,3.375         c-0.025,0.055-0.035,0.113-0.056,0.17c-0.31,1.083-0.6,2.173-0.869,3.268c-0.03,0.133-0.061,0.263-0.096,0.397         c-0.25,1.028-0.479,2.06-0.699,3.1c-0.045,0.23-0.091,0.465-0.136,0.695c-0.189,0.952-0.375,1.913-0.529,2.875         c-0.056,0.347-0.11,0.695-0.16,1.042c-0.136,0.867-0.271,1.732-0.375,2.603c-0.065,0.485-0.11,0.978-0.165,1.465         c-0.08,0.75-0.165,1.498-0.23,2.25c-0.055,0.692-0.095,1.39-0.135,2.085c-0.04,0.565-0.08,1.127-0.11,1.695         c-0.05,1.28-0.085,2.565-0.085,3.85h57.33h79.846C322.418,196.756,307.322,165.525,285.248,152.631z" fill="#4F2B06"/><path d="M321.133,244.351h-7.516c-5.725,26.96-29.66,47.219-58.33,47.219         c-28.685,0-52.619-20.259-58.35-47.219h-7.51c-16.561,0-16.561-24.847,0-24.847h7.51c5.73-26.978,29.665-47.215,58.35-47.215         c28.67,0,52.605,20.238,58.33,47.215h7.516C337.692,219.503,337.692,244.351,321.133,244.351z" fill="#E8A680"/><path d="M287.298,168.221c0-5.84-1.535-11.405-4.29-16.48c-4.056-1.005-8.32,0.938-12.755-0.295         c-5.261-1.463-10.766-7.41-16.426-7.41c-29.09,0-53.939,23.555-63.909,53.897c10.289,8.228,24.8,13.363,40.89,13.363         C262.008,211.296,287.298,192.011,287.298,168.221z" fill="#4F2B06"/></g></g><g><g><rect height="276.784" width="16.285" x="161.027" y="117.601"/><rect fill="#FFFFFF" height="276.784" opacity="0.4" width="6.36" x="165.987" y="117.601"/></g><g><rect height="276.784" width="16.279" x="247.873" y="118.301"/><rect fill="#FFFFFF" height="276.784" opacity="0.4" width="6.36" x="252.832" y="118.301"/></g><g><rect height="276.785" width="16.279" x="334.713" y="119"/><rect fill="#FFFFFF" height="276.785" opacity="0.4" width="6.359" x="339.673" y="119"/></g><path d="M397.803,400.505h-283.58V111.511h283.58V400.505z M133.147,381.439h245.729V130.576H133.147V381.439z"/></g></g></g></g></g></svg>