<?xml version="1.0" ?><!DOCTYPE svg  PUBLIC '-//W3C//DTD SVG 1.1//EN'  'http://www.w3.org/Graphics/SVG/1.1/DTD/svg11.dtd'><svg enable-background="new 0 0 64 64" height="64px" id="Layer_1" version="1.1" viewBox="0 0 64 64" width="64px" xml:space="preserve" xmlns="http://www.w3.org/2000/svg" xmlns:xlink="http://www.w3.org/1999/xlink"><g><g><path d="M32,64c13.043,0,24.256-7.808,29.239-19H2.761C7.744,56.192,18.957,64,32,64z" fill="#3F5A70"/><path d="M32,0C14.326,0,0,14.326,0,32c0,4.631,0.991,9.026,2.761,13h58.479C63.009,41.026,64,36.631,64,32    C64,14.326,49.674,0,32,0z" fill="#3B6D96"/></g><rect fill="#FFFFFF" height="29" width="22" x="20" y="16"/><polygon fill="#FC4349" points="42,45 24,49 24,12 42,16  "/><g><defs><circle cx="32" cy="32" id="SVGID_1_" r="32"/></defs><clipPath id="SVGID_2_"><use overflow="visible" xlink:href="#SVGID_1_"/></clipPath><polygon clip-path="url(#SVGID_2_)" opacity="0.2" points="24,49 42,45 70,56 34,69   "/></g><ellipse cx="26.5" cy="30" fill="#FFFFFF" rx="1.5" ry="2"/><rect fill="#2C3E50" height="29" width="1" x="19" y="16"/></g></svg>