<?xml version="1.0" encoding="UTF-8" standalone="no"?>
<svg
   xmlns:dc="http://purl.org/dc/elements/1.1/"
   xmlns:cc="http://creativecommons.org/ns#"
   xmlns:rdf="http://www.w3.org/1999/02/22-rdf-syntax-ns#"
   xmlns:svg="http://www.w3.org/2000/svg"
   xmlns="http://www.w3.org/2000/svg"
   xmlns:sodipodi="http://sodipodi.sourceforge.net/DTD/sodipodi-0.dtd"
   xmlns:inkscape="http://www.inkscape.org/namespaces/inkscape"
   width="100%"
   height="100%"
   viewBox="0 0 24 24"
   id="svg2"
   version="1.1"
   inkscape:version="0.48.4 r9939"
   sodipodi:docname="menu.svg">
  <metadata
     id="metadata12">
    <rdf:RDF>
      <cc:Work
         rdf:about="">
        <dc:format>image/svg+xml</dc:format>
        <dc:type
           rdf:resource="http://purl.org/dc/dcmitype/StillImage" />
      </cc:Work>
    </rdf:RDF>
  </metadata>
  <defs
     id="defs10" />
  <sodipodi:namedview
     pagecolor="#ffffff"
     bordercolor="#666666"
     borderopacity="1"
     objecttolerance="10"
     gridtolerance="10"
     guidetolerance="10"
     inkscape:pageopacity="0"
     inkscape:pageshadow="2"
     inkscape:window-width="1855"
     inkscape:window-height="1056"
     id="namedview8"
     showgrid="false"
     inkscape:zoom="39.333333"
     inkscape:cx="12.688385"
     inkscape:cy="10.908671"
     inkscape:window-x="65"
     inkscape:window-y="24"
     inkscape:window-maximized="1"
     inkscape:current-layer="svg2" />
  <path
     d="M0 0h24v24h-24z"
     fill="none"
     id="path4" />
  <path
     d="M3 18h18v-2h-18v2zm0-5h18v-2h-18v2zm0-7v2h18v-2h-18z"
     id="path6" />
  <path
     style="fill:#ffffff"
     d="m 3.0019443,6.9972614 0,-0.9788136 8.9872877,0 8.987289,0 0,0.9788136 0,0.9788135 -8.987289,0 -8.9872877,0 0,-0.9788135 z"
     id="path2989"
     inkscape:connector-curvature="0" />
  <path
     style="fill:#ffffff"
     d="m 3.0019443,11.993024 0,-0.991525 8.9872877,0 8.987289,0 0,0.991525 0,0.991526 -8.987289,0 -8.9872877,0 0,-0.991526 z"
     id="path2991"
     inkscape:connector-curvature="0" />
  <path
     style="fill:#ffffff"
     d="m 3.0019443,17.001499 0,-0.991526 8.9872877,0 8.987289,0 0,0.991526 0,0.991525 -8.987289,0 -8.9872877,0 0,-0.991525 z"
     id="path2993"
     inkscape:connector-curvature="0" />
</svg>
