<?xml version="1.0" ?><svg height="100" id="svg6343" version="1.1" width="100" xmlns="http://www.w3.org/2000/svg" xmlns:cc="http://creativecommons.org/ns#" xmlns:dc="http://purl.org/dc/elements/1.1/" xmlns:inkscape="http://www.inkscape.org/namespaces/inkscape" xmlns:rdf="http://www.w3.org/1999/02/22-rdf-syntax-ns#" xmlns:sodipodi="http://sodipodi.sourceforge.net/DTD/sodipodi-0.dtd" xmlns:svg="http://www.w3.org/2000/svg"><defs id="defs6345"><clipPath clipPathUnits="userSpaceOnUse" id="clipPath5445"><path d="m 168.46249,88.116169 0,288.004431 301.49142,-0.0698 z m 49.16779,149.421201 100.37536,96.11324 -101.0147,-1.06537 z" id="path5447" style="fill:#e74c3c;fill-opacity:1;stroke:none"/></clipPath><clipPath clipPathUnits="userSpaceOnUse" id="clipPath6336"><path d="m 168.46249,88.116169 0,288.004431 301.49142,-0.0698 z m 49.16779,149.421201 100.37536,96.11324 -101.0147,-1.06537 z" id="path6338" style="fill:#e74c3c;fill-opacity:1;stroke:none"/></clipPath><clipPath clipPathUnits="userSpaceOnUse" id="clipPath5508"><path d="m -605.71426,-302.85715 a 297.14285,297.14285 0 1 1 -594.28574,0 297.14285,297.14285 0 1 1 594.28574,0 z" id="path5510" style="fill:#ff642f;fill-opacity:1;stroke:none" transform="matrix(0.1890933,0.09604377,-0.09604377,0.1890933,190.20752,1127.0985)"/></clipPath><clipPath clipPathUnits="userSpaceOnUse" id="clipPath6336-0"><path d="m 168.46249,88.116169 0,288.004431 301.49142,-0.0698 z m 49.16779,149.421201 100.37536,96.11324 -101.0147,-1.06537 z" id="path6338-8" style="fill:#e74c3c;fill-opacity:1;stroke:none"/></clipPath><clipPath clipPathUnits="userSpaceOnUse" id="clipPath5445-6"><path d="m 168.46249,88.116169 0,288.004431 301.49142,-0.0698 z m 49.16779,149.421201 100.37536,96.11324 -101.0147,-1.06537 z" id="path5447-6" style="fill:#e74c3c;fill-opacity:1;stroke:none"/></clipPath></defs><g id="layer1" transform="translate(0,-952.36218)"><path d="m -605.71426,-302.85715 a 297.14285,297.14285 0 1 1 -594.28574,0 297.14285,297.14285 0 1 1 594.28574,0 z" id="path3007" style="fill:#ff642f;fill-opacity:1;stroke:none" transform="matrix(0.04059805,0.14589918,-0.14589918,0.04059805,42.467604,1146.3837)"/><g id="g6161"><path d="m 87.0038,1002.8662 c -0.332568,-0.075 -0.68145,-0.093 -1.028353,-0.059 -0.891924,0.087 -1.807849,0.4997 -2.592369,1.1968 l -11.56097,10.2726 c -0.784513,0.6971 -1.30154,1.5581 -1.493411,2.4336 -0.03989,0.182 -0.06491,0.3655 -0.07426,0.5494 l 1.777901,-1.5798 c 0.152334,-0.1981 0.328898,-0.3912 0.530112,-0.57 l 11.560969,-10.2726 c 0.521382,-0.4633 1.109038,-0.7544 1.654027,-0.8814 l 1.22635,-1.0897 z" id="rect6292" style="font-size:medium;font-style:normal;font-variant:normal;font-weight:normal;font-stretch:normal;text-indent:0;text-align:start;text-decoration:none;line-height:normal;letter-spacing:normal;word-spacing:normal;text-transform:none;direction:ltr;block-progression:tb;writing-mode:lr-tb;text-anchor:start;baseline-shift:baseline;color:#000000;fill:#24566d;fill-opacity:1;fill-rule:nonzero;stroke:none;stroke-width:8;marker:none;visibility:visible;display:inline;overflow:visible;enable-background:accumulate;font-family:Sans;-inkscape-font-specification:Sans"/><path d="m -94.773521,-177.83527 a 1.1149826,6.504065 0 1 1 -2.229966,0 1.1149826,6.504065 0 1 1 2.229966,0 z" id="path6313" style="fill:#24566d;fill-opacity:1;stroke:none" transform="matrix(0.23203415,0.26113583,-0.14013748,0.12452018,68.478336,1063.5852)"/></g><g clip-path="url(#clipPath5508)" id="g3797" transform="matrix(0.48219649,0.5266565,-0.5266565,0.48219649,544.34394,502.72679)"><rect height="87.631577" id="rect4331" ry="1.8395485" style="fill:#ffce35;fill-opacity:1;stroke:none" width="88.815788" x="6.1842136" y="958.54639"/><g id="g4611" transform="matrix(0.29307713,0,0,0.29307713,-75.526304,1000.6494)"><path d="m 294.97293,-122.623 c -4.53347,0 -8.25798,3.7245 -8.25798,8.25798 0,4.53348 3.72451,8.25798 8.25798,8.25798 4.53348,0 8.23865,-3.7245 8.23865,-8.25798 0,-4.53348 -3.70517,-8.25798 -8.23865,-8.25798 z m 0,4.00328 c 2.37172,0 4.23536,1.88298 4.23536,4.2547 0,2.37172 -1.86364,4.2547 -4.23536,4.2547 -2.37172,0 -4.25469,-1.88298 -4.25469,-4.2547 0,-2.37172 1.88297,-4.2547 4.25469,-4.2547 z" id="path4333" style="font-size:medium;font-style:normal;font-variant:normal;font-weight:normal;font-stretch:normal;text-indent:0;text-align:start;text-decoration:none;line-height:normal;letter-spacing:normal;word-spacing:normal;text-transform:none;direction:ltr;block-progression:tb;writing-mode:lr-tb;text-anchor:start;baseline-shift:baseline;color:#000000;fill:#3b3c3d;fill-opacity:1;stroke:none;stroke-width:6.46344328;marker:none;visibility:visible;display:inline;overflow:visible;enable-background:accumulate;font-family:Sans;-inkscape-font-specification:Sans"/><rect height="6" id="rect4350" ry="3" style="fill:#3b3c3d;stroke:none" width="21.918779" x="274.76147" y="-117.33354"/><path d="m 294.97293,-93.328576 c -4.53347,0 -8.25798,3.724504 -8.25798,8.257982 0,4.533479 3.72451,8.257983 8.25798,8.257983 4.53348,0 8.23865,-3.724504 8.23865,-8.257983 0,-4.533478 -3.70517,-8.257982 -8.23865,-8.257982 z m 0,4.003284 c 2.37172,0 4.23536,1.882978 4.23536,4.254698 0,2.371721 -1.86364,4.254699 -4.23536,4.254699 -2.37172,0 -4.25469,-1.882978 -4.25469,-4.254699 0,-2.37172 1.88297,-4.254698 4.25469,-4.254698 z" id="path4358" style="font-size:medium;font-style:normal;font-variant:normal;font-weight:normal;font-stretch:normal;text-indent:0;text-align:start;text-decoration:none;line-height:normal;letter-spacing:normal;word-spacing:normal;text-transform:none;direction:ltr;block-progression:tb;writing-mode:lr-tb;text-anchor:start;baseline-shift:baseline;color:#000000;fill:#3b3c3d;fill-opacity:1;stroke:none;stroke-width:6.46344328;marker:none;visibility:visible;display:inline;overflow:visible;enable-background:accumulate;font-family:Sans;-inkscape-font-specification:Sans"/><rect height="6" id="rect4360" ry="3" style="fill:#3b3c3d;stroke:none" width="21.918779" x="274.76147" y="-88.039116"/><path d="m 294.97293,-64.539228 c -4.53347,0 -8.25798,3.724504 -8.25798,8.257982 0,4.533479 3.72451,8.257983 8.25798,8.257983 4.53348,0 8.23865,-3.724504 8.23865,-8.257983 0,-4.533478 -3.70517,-8.257982 -8.23865,-8.257982 z m 0,4.003284 c 2.37172,0 4.23536,1.882978 4.23536,4.254698 0,2.371721 -1.86364,4.254699 -4.23536,4.254699 -2.37172,0 -4.25469,-1.882978 -4.25469,-4.254699 0,-2.37172 1.88297,-4.254698 4.25469,-4.254698 z" id="path4364" style="font-size:medium;font-style:normal;font-variant:normal;font-weight:normal;font-stretch:normal;text-indent:0;text-align:start;text-decoration:none;line-height:normal;letter-spacing:normal;word-spacing:normal;text-transform:none;direction:ltr;block-progression:tb;writing-mode:lr-tb;text-anchor:start;baseline-shift:baseline;color:#000000;fill:#3b3c3d;fill-opacity:1;stroke:none;stroke-width:6.46344328;marker:none;visibility:visible;display:inline;overflow:visible;enable-background:accumulate;font-family:Sans;-inkscape-font-specification:Sans"/><rect height="6" id="rect4366" ry="3" style="fill:#3b3c3d;stroke:none" width="21.918779" x="274.76147" y="-59.249771"/><path d="m 294.97293,-34.739729 c -4.53347,0 -8.25798,3.724504 -8.25798,8.257982 0,4.533479 3.72451,8.257983 8.25798,8.257983 4.53348,0 8.23865,-3.724504 8.23865,-8.257983 0,-4.533478 -3.70517,-8.257982 -8.23865,-8.257982 z m 0,4.003284 c 2.37172,0 4.23536,1.882978 4.23536,4.254698 0,2.371721 -1.86364,4.254699 -4.23536,4.254699 -2.37172,0 -4.25469,-1.882978 -4.25469,-4.254699 0,-2.37172 1.88297,-4.254698 4.25469,-4.254698 z" id="path4383" style="font-size:medium;font-style:normal;font-variant:normal;font-weight:normal;font-stretch:normal;text-indent:0;text-align:start;text-decoration:none;line-height:normal;letter-spacing:normal;word-spacing:normal;text-transform:none;direction:ltr;block-progression:tb;writing-mode:lr-tb;text-anchor:start;baseline-shift:baseline;color:#000000;fill:#3b3c3d;fill-opacity:1;stroke:none;stroke-width:6.46344328;marker:none;visibility:visible;display:inline;overflow:visible;enable-background:accumulate;font-family:Sans;-inkscape-font-specification:Sans"/><rect height="6" id="rect4385" ry="3" style="fill:#3b3c3d;stroke:none" width="21.918779" x="274.76147" y="-29.450272"/><path d="m 294.97293,-5.4453001 c -4.53347,0 -8.25798,3.7245041 -8.25798,8.2579825 0,4.5334785 3.72451,8.2579826 8.25798,8.2579826 4.53348,0 8.23865,-3.7245041 8.23865,-8.2579826 0,-4.5334784 -3.70517,-8.2579825 -8.23865,-8.2579825 z m 0,4.0032843 c 2.37172,0 4.23536,1.88297779 4.23536,4.2546982 0,2.3717204 -1.86364,4.2546983 -4.23536,4.2546983 -2.37172,0 -4.25469,-1.8829779 -4.25469,-4.2546983 0,-2.37172041 1.88297,-4.2546982 4.25469,-4.2546982 z" id="path4389" style="font-size:medium;font-style:normal;font-variant:normal;font-weight:normal;font-stretch:normal;text-indent:0;text-align:start;text-decoration:none;line-height:normal;letter-spacing:normal;word-spacing:normal;text-transform:none;direction:ltr;block-progression:tb;writing-mode:lr-tb;text-anchor:start;baseline-shift:baseline;color:#000000;fill:#3b3c3d;fill-opacity:1;stroke:none;stroke-width:6.46344328;marker:none;visibility:visible;display:inline;overflow:visible;enable-background:accumulate;font-family:Sans;-inkscape-font-specification:Sans"/><rect height="6" id="rect4391" ry="3" style="fill:#3b3c3d;stroke:none" width="21.918779" x="274.76147" y="-0.15584187"/><path d="m 294.97293,23.34404 c -4.53347,0 -8.25798,3.724504 -8.25798,8.257982 0,4.533479 3.72451,8.257983 8.25798,8.257983 4.53348,0 8.23865,-3.724504 8.23865,-8.257983 0,-4.533478 -3.70517,-8.257982 -8.23865,-8.257982 z m 0,4.003284 c 2.37172,0 4.23536,1.882978 4.23536,4.254698 0,2.371721 -1.86364,4.254699 -4.23536,4.254699 -2.37172,0 -4.25469,-1.882978 -4.25469,-4.254699 0,-2.37172 1.88297,-4.254698 4.25469,-4.254698 z" id="path4395" style="font-size:medium;font-style:normal;font-variant:normal;font-weight:normal;font-stretch:normal;text-indent:0;text-align:start;text-decoration:none;line-height:normal;letter-spacing:normal;word-spacing:normal;text-transform:none;direction:ltr;block-progression:tb;writing-mode:lr-tb;text-anchor:start;baseline-shift:baseline;color:#000000;fill:#3b3c3d;fill-opacity:1;stroke:none;stroke-width:6.46344328;marker:none;visibility:visible;display:inline;overflow:visible;enable-background:accumulate;font-family:Sans;-inkscape-font-specification:Sans"/><rect height="6" id="rect4397" ry="3" style="fill:#3b3c3d;stroke:none" width="21.918779" x="274.76147" y="28.633497"/><path d="m 294.97293,56.174 c -4.53347,0 -8.25798,3.724504 -8.25798,8.257982 0,4.533479 3.72451,8.257983 8.25798,8.257983 4.53348,0 8.23865,-3.724504 8.23865,-8.257983 0,-4.533478 -3.70517,-8.257982 -8.23865,-8.257982 z m 0,4.003284 c 2.37172,0 4.23536,1.882978 4.23536,4.254698 0,2.371721 -1.86364,4.254699 -4.23536,4.254699 -2.37172,0 -4.25469,-1.882978 -4.25469,-4.254699 0,-2.37172 1.88297,-4.254698 4.25469,-4.254698 z" id="path4432" style="font-size:medium;font-style:normal;font-variant:normal;font-weight:normal;font-stretch:normal;text-indent:0;text-align:start;text-decoration:none;line-height:normal;letter-spacing:normal;word-spacing:normal;text-transform:none;direction:ltr;block-progression:tb;writing-mode:lr-tb;text-anchor:start;baseline-shift:baseline;color:#000000;fill:#3b3c3d;fill-opacity:1;stroke:none;stroke-width:6.46344328;marker:none;visibility:visible;display:inline;overflow:visible;enable-background:accumulate;font-family:Sans;-inkscape-font-specification:Sans"/><rect height="6" id="rect4434" ry="3" style="fill:#3b3c3d;stroke:none" width="21.918779" x="274.76147" y="61.463459"/><path d="m 294.97293,85.46843 c -4.53347,0 -8.25798,3.724504 -8.25798,8.257982 0,4.533479 3.72451,8.257978 8.25798,8.257978 4.53348,0 8.23865,-3.724499 8.23865,-8.257978 0,-4.533478 -3.70517,-8.257982 -8.23865,-8.257982 z m 0,4.003284 c 2.37172,0 4.23536,1.882978 4.23536,4.254698 0,2.371721 -1.86364,4.254699 -4.23536,4.254699 -2.37172,0 -4.25469,-1.882978 -4.25469,-4.254699 0,-2.37172 1.88297,-4.254698 4.25469,-4.254698 z" id="path4438" style="font-size:medium;font-style:normal;font-variant:normal;font-weight:normal;font-stretch:normal;text-indent:0;text-align:start;text-decoration:none;line-height:normal;letter-spacing:normal;word-spacing:normal;text-transform:none;direction:ltr;block-progression:tb;writing-mode:lr-tb;text-anchor:start;baseline-shift:baseline;color:#000000;fill:#3b3c3d;fill-opacity:1;stroke:none;stroke-width:6.46344328;marker:none;visibility:visible;display:inline;overflow:visible;enable-background:accumulate;font-family:Sans;-inkscape-font-specification:Sans"/><rect height="6" id="rect4440" ry="3" style="fill:#3b3c3d;stroke:none" width="21.918779" x="274.76147" y="90.757889"/><path d="m 294.97293,114.25777 c -4.53347,0 -8.25798,3.7245 -8.25798,8.25798 0,4.53348 3.72451,8.25798 8.25798,8.25798 4.53348,0 8.23865,-3.7245 8.23865,-8.25798 0,-4.53348 -3.70517,-8.25798 -8.23865,-8.25798 z m 0,4.00328 c 2.37172,0 4.23536,1.88298 4.23536,4.2547 0,2.37172 -1.86364,4.2547 -4.23536,4.2547 -2.37172,0 -4.25469,-1.88298 -4.25469,-4.2547 0,-2.37172 1.88297,-4.2547 4.25469,-4.2547 z" id="path4444" style="font-size:medium;font-style:normal;font-variant:normal;font-weight:normal;font-stretch:normal;text-indent:0;text-align:start;text-decoration:none;line-height:normal;letter-spacing:normal;word-spacing:normal;text-transform:none;direction:ltr;block-progression:tb;writing-mode:lr-tb;text-anchor:start;baseline-shift:baseline;color:#000000;fill:#3b3c3d;fill-opacity:1;stroke:none;stroke-width:6.46344328;marker:none;visibility:visible;display:inline;overflow:visible;enable-background:accumulate;font-family:Sans;-inkscape-font-specification:Sans"/><rect height="6" id="rect4446" ry="3" style="fill:#3b3c3d;stroke:none" width="21.918779" x="274.76147" y="119.54723"/></g></g><g id="g3830" transform="matrix(0.74290395,0.84805343,-0.84805343,0.74290395,879.67192,236.04786)"><g id="g6685"><rect height="4.5503554" id="rect6290" style="fill:#24566d;fill-opacity:1;stroke:none" transform="matrix(0.88697215,0,0,0.88697215,-667.69883,443.85836)" width="2.82601" x="808.52014" y="597.16235"/><rect height="52.879917" id="rect6288" ry="1.1016649" style="fill:#27bec4;fill-opacity:1;stroke:none" transform="matrix(0.88697215,0,0,0.88697215,-667.69883,443.85836)" width="4.938086" x="807.46411" y="600.03625"/><path d="m 52.030699,1024.2746 c 0,1.1966 -0.600551,6.925 -1.341369,6.925 -0.740817,0 -1.341368,-5.7284 -1.341368,-6.925 0,-1.1967 0.600551,-2.1667 1.341368,-2.1667 0.740818,0 1.341369,0.97 1.341369,2.1667 z" id="path6283" style="fill:#d3d2d3;fill-opacity:1;stroke:none"/><path d="m 50.689331,1020.0362 c -1.221821,0 -2.212707,1.0488 -2.212707,2.3419 0,0.974 0.559524,4.7254 1.358945,6.5181 l 1.702472,0 c 0.799421,-1.7927 1.363997,-5.5441 1.363997,-6.5181 0,-1.2931 -0.990885,-2.3419 -2.212707,-2.3419 z" id="path6280" style="fill:#24566d;fill-opacity:1;stroke:none"/></g></g></g></svg>