<?xml version="1.0" ?><!DOCTYPE svg  PUBLIC '-//W3C//DTD SVG 1.1//EN'  'http://www.w3.org/Graphics/SVG/1.1/DTD/svg11.dtd'><svg enable-background="new 0 0 300 300" height="300px" id="Layer_1" version="1.1" viewBox="0 0 300 300" width="300px" xml:space="preserve" xmlns="http://www.w3.org/2000/svg" xmlns:xlink="http://www.w3.org/1999/xlink"><g><g><g><g><polygon fill="#5D6D7E" points="155.687,75.008 144.309,75.008 140.996,91.56 159.005,91.56     "/><polygon fill="#5D6D7E" points="117.431,82.209 107.574,87.898 112.973,103.899 128.58,94.889     "/><polygon fill="#5D6D7E" points="87.898,107.58 82.209,117.428 94.889,128.585 103.894,112.976     "/><polygon fill="#5D6D7E" points="75.002,144.312 75.005,155.694 91.563,159.013 91.563,140.993     "/><polygon fill="#5D6D7E" points="82.209,182.571 87.898,192.426 103.894,187.024 94.889,171.421     "/><polygon fill="#5D6D7E" points="107.574,212.102 117.431,217.791 128.58,205.11 112.978,196.106     "/><polygon fill="#5D6D7E" points="144.312,224.992 155.687,224.992 159.005,208.445 141.001,208.445     "/><polygon fill="#5D6D7E" points="182.571,217.791 192.42,212.102 187.021,196.106 171.415,205.11     "/><polygon fill="#5D6D7E" points="212.1,192.426 217.788,182.571 205.108,171.421 196.099,187.024     "/><polygon fill="#5D6D7E" points="224.997,155.694 224.992,144.312 208.439,140.993 208.439,159.013     "/><polygon fill="#5D6D7E" points="217.788,117.428 212.1,107.58 196.099,112.976 205.108,128.585     "/><polygon fill="#5D6D7E" points="192.42,87.898 182.563,82.209 171.415,94.889 187.021,103.899     "/></g></g><path d="M149.995,90.881c-32.657,0-59.127,26.459-59.127,59.119c0,32.665,26.47,59.124,59.127,59.124    c32.663,0,59.127-26.459,59.127-59.124C209.122,117.34,182.657,90.881,149.995,90.881z M149.995,166.376    c-9.026,0-16.374-7.337-16.374-16.376c0-9.034,7.348-16.376,16.374-16.376c9.034,0,16.379,7.343,16.379,16.376    C166.374,159.039,159.028,166.376,149.995,166.376z" fill="#34495E"/><path d="M149.995,121.625c-15.676,0-28.382,12.696-28.382,28.375c0,15.687,12.707,28.383,28.382,28.383    c15.678,0,28.377-12.696,28.377-28.383C178.372,134.321,165.673,121.625,149.995,121.625z M149.995,164.195    c-7.822,0-14.187-6.368-14.187-14.195c0-7.822,6.365-14.185,14.187-14.185c7.828,0,14.19,6.363,14.19,14.185    C164.185,157.827,157.822,164.195,149.995,164.195z" fill="#FF7059"/></g><g><path d="M150,265.016c-63.521,0-115.021-51.497-115.021-115.021c0-47.917,29.323-88.985,70.992-106.269    L92.604,11.431C38.258,33.906,0.005,87.536,0.005,150.024C0.005,232.844,67.17,300,149.976,300    c41.409,0,78.923-16.738,106.072-43.896l-24.749-24.75C210.49,252.154,181.743,265.016,150,265.016z" fill="#FF7059"/><path d="M265.016,150.005c0,31.767-12.877,60.52-33.69,81.331l24.744,24.739    c27.145-27.152,43.926-64.646,43.926-106.07H265.016z" fill="#CDD3DA"/><path d="M150,34.984c63.526,0,115.016,51.497,115.016,115.01c0,0.005,0,0.011,0,0.011h34.979    c0-82.825-67.171-149.989-150-149.989v34.968H150z" fill="#4BD6C0"/><path d="M149.976,34.984V0c-20.305,0-39.701,4.072-57.372,11.431l13.367,32.295    C119.53,38.106,134.385,34.984,149.976,34.984z" fill="#34495E"/></g></g></svg>