<?xml version="1.0" ?><!DOCTYPE svg  PUBLIC '-//W3C//DTD SVG 1.1//EN'  'http://www.w3.org/Graphics/SVG/1.1/DTD/svg11.dtd'><svg enable-background="new 0 0 64 64" height="64px" id="Layer_1" version="1.1" viewBox="0 0 64 64" width="64px" xml:space="preserve" xmlns="http://www.w3.org/2000/svg" xmlns:xlink="http://www.w3.org/1999/xlink"><g><circle cx="32" cy="32" fill="#8CB770" r="32"/><path d="M32.333,16.772c-9.389,0-17,7.611-17,17c0,9.39,7.611,17,17,17s17-7.61,17-17   C49.333,24.384,41.722,16.772,32.333,16.772z M32.333,48.454c-8.108,0-14.682-6.573-14.682-14.682s6.573-14.682,14.682-14.682   s14.682,6.573,14.682,14.682S40.441,48.454,32.333,48.454z" fill="#565656" opacity="0.5"/><circle cx="32.333" cy="32.228" fill="#FFFFFF" r="15.454"/><path d="M32.333,15.228c-9.389,0-17,7.61-17,17c0,9.389,7.611,17,17,17s17-7.611,17-17   C49.333,22.838,41.722,15.228,32.333,15.228z M32.333,46.909c-8.108,0-14.682-6.573-14.682-14.682s6.573-14.682,14.682-14.682   s14.682,6.573,14.682,14.682S40.441,46.909,32.333,46.909z" fill="#0A98EF"/><rect fill="#595959" height="10.044" transform="matrix(0.9398 0.3417 -0.3417 0.9398 11.3347 -9.9386)" width="1.546" x="33.105" y="22.182"/><rect fill="#595959" height="11" width="2" x="31" y="32"/><circle cx="32.333" cy="32.228" fill="#C1C1C1" r="2.318"/></g></svg>